<?xml version="1.0" encoding="UTF-8"?>
<svg id="Layer_2" data-name="Layer 2" xmlns="http://www.w3.org/2000/svg" viewBox="0 0 1228.44 435.65">
  <defs>
    <style>
      .cls-1 {
        fill: #231f20;
      }
    </style>
  </defs>
  <g id="Layer_1-2" data-name="Layer 1">
    <g>
      <g>
        <path class="cls-1" d="M8.62,189.42l52.97-7.03c7.72,22.84,27.01,35.14,54.37,35.14s43.85-11.25,43.5-30.22c-.7-49.9-141.71-17.22-141.71-112.81C17.74,29.87,55.62,0,109.99,0s92.25,23.55,102.07,68.88l-50.86,7.03c-8.07-20.38-24.2-30.93-49.46-30.93s-39.99,10.89-39.99,28.47c0,54.12,143.46,15.46,143.46,112.1,0,46.04-38.94,76.26-98.92,76.26-56.12,0-96.81-26.01-107.69-72.39Z"/>
        <path class="cls-1" d="M269.24,3.87h168.02v49.55h-112.6v54.82h106.28v43.23h-106.28v57.28h112.6v49.55h-168.02V3.87Z"/>
        <path class="cls-1" d="M489.52,131.43c0-90.67,56.83-130.38,120.67-130.38s120.31,39.71,120.31,130.38-57.18,130.73-121.02,130.73-119.96-38.3-119.96-130.73ZM675.08,131.43c0-51.31-25.96-80.83-65.24-80.83s-65.94,29.52-65.94,80.83,25.26,81.18,65.59,81.18,65.59-28.46,65.59-81.18Z"/>
        <path class="cls-1" d="M788.72,140.22V3.87h55.42v136c0,50.96,15.78,72.04,52.26,72.04s51.91-21.09,51.91-71.69V3.87h55.77v136.7c0,82.23-36.13,121.24-107.69,121.24s-107.69-38.66-107.69-121.59Z"/>
        <path class="cls-1" d="M1070.39,3.87h55.42v204.88h94.01v49.55h-149.43V3.87Z"/>
      </g>
      <g>
        <path class="cls-1" d="M0,379.08c0-39.08,26.26-56.73,53.28-56.73,21.25,0,44.78,10.49,50.7,41.21l-30.36,5.02c-2.88-12.93-11.54-18.1-20.34-18.1-12.6,0-21.4,10.49-21.4,28.59s8.8,28.44,21.4,28.44c8.96,0,17.61-5.32,20.49-18.55l30.21,5.17c-5.77,30.87-29.29,41.52-50.7,41.52-27.02,0-53.28-16.42-53.28-56.57Z"/>
        <path class="cls-1" d="M149.51,378.93c0-39.24,24.89-56.42,52.67-56.42s52.37,17.18,52.37,56.42-24.89,56.57-52.67,56.57-52.37-16.58-52.37-56.57ZM223.89,378.77c0-18.55-9.11-29.05-21.86-29.05s-22.16,10.49-22.16,29.05c0,19.47,8.65,29.5,22.01,29.5s22.01-10.04,22.01-29.5Z"/>
        <path class="cls-1" d="M305.56,323.72h30.81v83.03h34.61v27.07h-65.42v-110.1Z"/>
        <path class="cls-1" d="M418.64,323.72h30.81v83.03h34.61v27.07h-65.42v-110.1Z"/>
        <path class="cls-1" d="M531.72,323.72h73.77v27.22h-43.11v16.27h40.38v22.51h-40.38v17.03h43.11v27.07h-73.77v-110.1Z"/>
        <path class="cls-1" d="M652.85,379.08c0-39.08,26.26-56.73,53.28-56.73,21.25,0,44.78,10.49,50.7,41.21l-30.36,5.02c-2.88-12.93-11.54-18.1-20.34-18.1-12.6,0-21.4,10.49-21.4,28.59s8.8,28.44,21.4,28.44c8.96,0,17.61-5.32,20.49-18.55l30.21,5.17c-5.77,30.87-29.29,41.52-50.7,41.52-27.02,0-53.28-16.42-53.28-56.57Z"/>
        <path class="cls-1" d="M821.49,350.94h-23.68v-27.22h78.02v27.22h-23.53v82.88h-30.81v-82.88Z"/>
        <path class="cls-1" d="M924.71,323.72h30.81v110.1h-30.81v-110.1Z"/>
        <path class="cls-1" d="M998.33,323.72h33.39l23.22,73.76,23.38-73.76h33.55l-40.98,110.1h-31.88l-40.68-110.1Z"/>
        <path class="cls-1" d="M1154.67,323.72h73.77v27.22h-43.11v16.27h40.38v22.51h-40.38v17.03h43.11v27.07h-73.77v-110.1Z"/>
      </g>
    </g>
  </g>
</svg>